/* XPM */
static char *result[] = {
/* columns rows colors chars-per-pixel */
"32 32 2 1 ",
"  c #72C37A",
". c #68B671",
/* pixels */
"                                ",
"                                ",
"                                ",
"                                ",
"                                ",
"               .                ",
"               ..  ..           ",
"            ..  . ..            ",
"             .. . .             ",
"                                ",
"                                ",
"                                ",
"       .                        ",
"       ..  ..                   ",
"    ..  . ..                    ",
"     .. . .                     ",
"                                ",
"                     ..         ",
"                  .. .  ..      ",
"                   . . ..       ",
"                                ",
"                                ",
"                                ",
"                                ",
"                                ",
"                   ..  ..       ",
"                ..  . ..        ",
"                 .. . .         ",
"                                ",
"                                ",
"                                ",
"                                "
};
