/* XPM */
static char *result[] = {
/* columns rows colors chars-per-pixel */
"32 32 21 1 ",
"  c gray18",
". c #2F2F2E",
"X c #2F2F2F",
"o c #32322F",
"O c #3B3B39",
"+ c #624023",
"@ c #69483A",
"# c #69493A",
"$ c #69493B",
"% c #916351",
"& c #916451",
"* c #B37C64",
"= c #B29D62",
"- c #E59363",
"; c #E69363",
": c #D2BA77",
"> c #B4B4AE",
", c #FFD19C",
"< c #DAD9CC",
"1 c #F1F0FD",
"2 c None",
/* pixels */
"22222222222222222222222222222222",
"22222222222222222222222222222222",
"22222222222222222222222222222222",
"22222222222222222222222222222222",
"22222222222222222222222222222222",
"22222222222222222222222222222222",
"222222222222 .....22222222222222",
"22222222222 @@@&@*.2222222222222",
"2222222222.@@@@&&&.2222222222222",
"222222222..OOOO&&&@.222222222222",
"22222222.&..@@@OOOO..22222222222",
"22222222..--.&&&&&&&@.2222222222",
"22222222.,,...*******.2222222222",
"22222222.,-.@$ .......2222222222",
"22222222.,@.-11 ;1..222222222222",
"22222222.@@&.-,,,,,.222222222222",
"222222222.@&.------.222222222222",
"2222222222.@&.<<,<#&.22222222222",
"2222222222.@&%>>>>@&.22222222222",
"22222222222.@&><><@@.22222222222",
"22222222222.@%><><@.,.2222222222",
"22222222222o@&><>...,.2222222222",
"22222222222o@@O..:::..2222222222",
"2222222222.=:::::=::.22222222222",
"2222222222.+@..X..+@.22222222222",
"22222222222..22222..222222222222",
"22222222222222222222222222222222",
"22222222222222222222222222222222",
"22222222222222222222222222222222",
"22222222222222222222222222222222",
"22222222222222222222222222222222",
"22222222222222222222222222222222"
};
