/* XPM */
static char *result[] = {
/* columns rows colors chars-per-pixel */
"32 32 16 1 ",
"  c None",
". c #2F2F2E",
"X c #69483A",
"o c #916451",
"O c #B37C64",
"+ c #3B3B39",
"@ c #E59363",
"# c #FFD19C",
"$ c #F1F0FD",
"% c #DAD9CC",
"& c #B4B4AE",
"* c #32322F",
"= c #9299A4",
"- c #B29D62",
"; c #D2BA77",
": c #624023",
/* pixels */
"                                ",
"                                ",
"                                ",
"                                ",
"                                ",
"                                ",
"            ......              ",
"           .XXXoXO.             ",
"          .XXXXooo.             ",
"         ..++++oooX.            ",
"        .o..XXX++++..           ",
"        ..@@.oOOOOOOO.          ",
"        .##...........          ",
"        .#@.XXXX@XX.            ",
"        .#X.@$$.@$..            ",
"        .XXo.@#####.            ",
"         .Xo.@@@@@@.            ",
"         .XXo.####%.            ",
"          .Xo.%%#%Xo.           ",
"          .Xoo&&&&Xoo.          ",
"           .Xo&%&%XXo.          ",
"           .Xo&%&%X.##.         ",
"           *Xo&%&%X.@#.         ",
"           *XX+===X..#.         ",
"           *-;;;;;;. .          ",
"           .-;;.-;;.            ",
"           .:X. .:X.            ",
"            ..   ..             ",
"                                ",
"                                ",
"                                ",
"                                "
};
