/* XPM */
static char *result[] = {
/* columns rows colors chars-per-pixel */
"32 32 227 2 ",
"   c #282A2B",
".  c #2B2C2B",
"X  c #2B2D2D",
"o  c #2D2E2E",
"O  c #2F2F2E",
"+  c #2F2F2F",
"@  c #30302F",
"#  c #32312F",
"$  c #36322D",
"%  c #37322E",
"&  c #3C352E",
"*  c #333230",
"=  c #373230",
"-  c #373330",
";  c #363331",
":  c #373331",
">  c #373432",
",  c #363532",
"<  c #373533",
"1  c #383330",
"2  c #383430",
"3  c #3B3430",
"4  c #383432",
"5  c #393532",
"6  c #383732",
"7  c #3A3632",
"8  c #3C3531",
"9  c #3D3632",
"0  c #3D3733",
"q  c #3E3632",
"w  c #3E3733",
"e  c #3F3832",
"r  c #3A3934",
"t  c #3C3835",
"y  c #3C3B35",
"u  c #3F3D3A",
"i  c #403732",
"p  c #413833",
"a  c #453933",
"s  c #403834",
"d  c #423934",
"f  c #413A34",
"g  c #413A35",
"h  c #433A34",
"j  c #433A35",
"k  c #403A36",
"l  c #423A36",
"z  c #443A35",
"x  c #453B35",
"c  c #443C37",
"v  c #423F3B",
"b  c #453C38",
"n  c #453D38",
"m  c #463D38",
"M  c #463D39",
"N  c #4D3F38",
"B  c #503F37",
"V  c #5E462E",
"C  c #46403C",
"Z  c #47423D",
"A  c #4A403A",
"S  c #4C403A",
"D  c #4A423D",
"F  c #4A423E",
"G  c #4C483B",
"H  c #524037",
"J  c #524138",
"K  c #544138",
"L  c #51443D",
"P  c #52443D",
"I  c #53463F",
"U  c #54453D",
"Y  c #5D473C",
"T  c #5E473C",
"R  c #504C3D",
"E  c #5E483C",
"W  c #5D493F",
"Q  c #624831",
"!  c #63483B",
"~  c #60493D",
"^  c #65493C",
"/  c #654A3D",
"(  c #654B3E",
")  c #644B3F",
"_  c #674B3E",
"`  c #664B3F",
"'  c #654C3F",
"]  c #644D3F",
"[  c #674E3E",
"{  c #694C3F",
"}  c #6A4D3F",
"|  c #474646",
" . c #484744",
".. c #4E4C44",
"X. c #5A4B42",
"o. c #5C4C43",
"O. c #575142",
"+. c #595444",
"@. c #5A5248",
"#. c #5C5750",
"$. c #6B4E40",
"%. c #6C4F41",
"&. c #605043",
"*. c #6D5041",
"=. c #6D5042",
"-. c #6E5542",
";. c #695146",
":. c #6D5544",
">. c #665B4E",
",. c #685D4F",
"<. c #715345",
"1. c #735647",
"2. c #765644",
"3. c #745546",
"4. c #71594C",
"5. c #71594D",
"6. c #725A4E",
"7. c #745C4F",
"8. c #7E5C4C",
"9. c #735E52",
"0. c #776050",
"q. c #7F6355",
"w. c #835D48",
"e. c #815E4E",
"r. c #805F4F",
"t. c #8E674F",
"y. c #95694F",
"u. c #816050",
"i. c #826151",
"p. c #876251",
"a. c #856555",
"s. c #886553",
"d. c #8A6554",
"f. c #896654",
"g. c #8B6654",
"h. c #8B6655",
"j. c #8C6754",
"k. c #8D6755",
"l. c #8A6C57",
"z. c #8E6B5A",
"x. c #8A6E59",
"c. c #8F6D5C",
"v. c #9A6B50",
"b. c #81725E",
"n. c #A57557",
"m. c #877761",
"M. c #8C7A64",
"N. c #8E7C65",
"B. c #917B64",
"V. c #907D67",
"C. c #947D65",
"Z. c #987962",
"A. c #A17662",
"S. c #A17763",
"D. c #A47964",
"F. c #91847A",
"G. c #9C8B7D",
"H. c #BA8461",
"J. c #A39365",
"K. c #AD9968",
"L. c #BB906E",
"P. c #A18C71",
"I. c #AA9476",
"U. c #B99978",
"Y. c #B4A16E",
"T. c #B6A574",
"R. c #BAA977",
"E. c #BFAB75",
"W. c #D39268",
"Q. c #DB966B",
"!. c #C8977B",
"~. c #DD9C73",
"^. c #CFA47E",
"/. c #C2AE79",
"(. c #C3AE79",
"). c #C9B67E",
"_. c #C9B67F",
"`. c #CBB77E",
"'. c #CBB77F",
"]. c #E3A87B",
"[. c #E3A87C",
"{. c #9D9D99",
"}. c #989C9E",
"|. c #9A9D9F",
" X c #A4958A",
".X c #A89C91",
"XX c #ADAEAD",
"oX c #B3B4AF",
"OX c #B4B4AF",
"+X c #B4B4B0",
"@X c #B6B6B1",
"#X c #D9AD84",
"$X c #CCB981",
"%X c #CDB28C",
"&X c #D2B792",
"*X c #E1AD8D",
"=X c #E3B78C",
"-X c #EEBD8F",
";X c #EEBD90",
":X c #F3C799",
">X c #F6CB9C",
",X c #DCC2AA",
"<X c #DFC3AA",
"1X c #D9C5A9",
"2X c #C2C2BA",
"3X c #C3C3BB",
"4X c #C6C5BC",
"5X c #CAC7BD",
"6X c #C9C7BE",
"7X c #C9C8BF",
"8X c #F9D1A1",
"9X c #F9D3A3",
"0X c #E7D7BD",
"qX c #E8D7BB",
"wX c #E6D8BE",
"eX c #F5D7B5",
"rX c #F7D8B4",
"tX c #CAC3C6",
"yX c #C8C9C2",
"uX c #CACBC4",
"iX c #C3C2C9",
"pX c #D6D5CA",
"aX c #D7D6CB",
"sX c #D9D8CC",
"dX c #DAD9CD",
"fX c #D5CED4",
"gX c None",
/* pixels */
"gXgXgXgXgXgXgXgXgXgXgXgXgXgXgXgXgXgXgXgXgXgXgXgXgXgXgXgXgXgXgXgX",
"gXgXgXgXgXgXgXgXgXgXgXgXgXgXgXgXgXgXgXgXgXgXgXgXgXgXgXgXgXgXgXgX",
"gXgXgXgXgXgXgXgXgXgXgXgXgXgXgXgXgXgXgXgXgXgXgXgXgXgXgXgXgXgXgXgX",
"gXgXgXgXgXgXgXgXgXgXgXgXgXgXgXgXgXgXgXgXgXgXgXgXgXgXgXgXgXgXgXgX",
"gXgXgXgXgXgXgXgXgXgXgXgXgXgXgXgXgXgXgXgXgXgXgXgXgXgXgXgXgXgXgXgX",
"gXgXgXgXgXgXgXgXgXgXgXgXgXgXgXgXgXgXgXgXgXgXgXgXgXgXgXgXgXgXgXgX",
"gXgXgXgXgXgXgXgXgXgXgXgX2 h h z L h X.gXgXgXgXgXgXgXgXgXgXgXgXgX",
"gXgXgXgXgXgXgXgXgXgXgXgXx / / _ j.*.A.k gXgXgXgXgXgXgXgXgXgXgXgX",
"gXgXgXgXgXgXgXgXgXgXO 0 E Y Y ~ g.k.d.j gXgXgXgXgXgXgXgXgXgXgXgX",
"gXgXgXgXgXgXgXgXgX4 5 < u u u v i.i.i.' w gXgXgXgXgXgXgXgXgXgXgX",
"gXgXgXgXgXgXgXgXgXP 1.( ` ` ` ) Z Z Z C t ; gXgXgXgXgXgXgXgXgXgX",
"gXgXgXgXgXgXgXgXgX# U r.r.r.u.h.f.f.f.f.s.<.d gXgXgXgXgXgXgXgXgX",
"gXgXgXgXgXgXgXgXgXgX* 7 0 5 l D.D.D.D.D.D.S.I gXgXgXgXgXgXgXgXgX",
"gXgXgXgXgXgXgXgXgXgXp 2.n.T W F n A D M n m > gXgXgXgXgXgXgXgXgX",
"gXgXgXgXgXgXgXgXgXgXa w.W.!.fXiX> H.tX| @ gXgXgXgXgXgXgXgXgXgXgX",
"gXgXgXgXgXgXgXgXgXgX= N y.~.*XeX%X:XrX&X@.gXgXgXgXgXgXgXgXgXgXgX",
"gXgXgXgXgXgXgXgXgXgXgX: J v.Q.[.[.[.[.].&.gXgXgXgXgXgXgXgXgXgXgX",
"gXgXgXgXgXgXgXgXgXgXgXo  ..X,X-X-X;X-X<X#.gXgXgXgXgXgXgXgXgXgXgX",
"gXgXgXgXgXgXgXgXgXgXi B o.F.4XwX0X9XqXG.9.b gXgXgXgXgXgXgXgXgXgX",
"gXgXgXgXgXgXgXgXgX3 H ^ { q. X7X6X1X5X4.e.;.c gXgXgXgXgXgXgXgXgX",
"gXgXgXgXgXgXgXgX,.C.l.! } 8.z.+X3XoX2X5.3.p.S gXgXgXgXgXgXgXgXgX",
"gXgXgXgXgXgXgX+ N.>X^.x.K %.c.@XdXOXaX7.K Z.B.>.gXgXgXgXgXgXgXgX",
"gXgXgXgXgXgXgXO M.#XL.P.8 =.c.@XsXOXpX7.9 U.8XN.gXgXgXgXgXgXgXgX",
"gXgXgXgXgXgXgXgXb.V.  . e $.a.{.uXXXyX6.q t.=XM.gXgXgXgXgXgXgXgX",
"gXgXgXgXgXgXgXgXgXgXgXgXf -.:...}.|.}.0.g X I.m.gXgXgXgXgXgXgXgX",
"gXgXgXgXgXgXgXgXgXgXgXgXR Y.`.).R._.$X'.+.gX, gXgXgXgXgXgXgXgXgX",
"gXgXgXgXgXgXgXgXgXgXgXgXG K./.T.y J.E.(.O.gXgXgXgXgXgXgXgXgXgXgX",
"gXgXgXgXgXgXgXgXgXgXgXgX& Q ] r gX6 V [ s gXgXgXgXgXgXgXgXgXgXgX",
"gXgXgXgXgXgXgXgXgXgXgXgXgX% - gXgXgX$ 1 gXgXgXgXgXgXgXgXgXgXgXgX",
"gXgXgXgXgXgXgXgXgXgXgXgXgXgXgXgXgXgXgXgXgXgXgXgXgXgXgXgXgXgXgXgX",
"gXgXgXgXgXgXgXgXgXgXgXgXgXgXgXgXgXgXgXgXgXgXgXgXgXgXgXgXgXgXgXgX",
"gXgXgXgXgXgXgXgXgXgXgXgXgXgXgXgXgXgXgXgXgXgXgXgXgXgXgXgXgXgXgXgX"
};
