/* XPM */
static char *result[] = {
/* columns rows colors chars-per-pixel */
"32 32 15 1 ",
"  c None",
". c #2F2F2E",
"X c #69483A",
"o c #916451",
"O c #B37C64",
"+ c #3B3B39",
"@ c #E59363",
"# c #FFD19C",
"$ c #B4B4AE",
"% c #DAD9CC",
"& c #B29D62",
"* c #D2BA77",
"= c #32322F",
"- c #624023",
"; c #9299A4",
/* pixels */
"                                ",
"                                ",
"                                ",
"                                ",
"                                ",
"                                ",
"                                ",
"            ......              ",
"           .XXXoXO.             ",
"          .XXXXooo.             ",
"         ..++++oooX.            ",
"        .oXXXXX++++..           ",
"        ..ooooooooooX.          ",
"         .....OOOOOOO.          ",
"         .X@@@........          ",
"          .X@@#####.            ",
"           .X@@@@@@.            ",
"          ..$%####%.            ",
"         .XXX$%%#%Xo.           ",
"        .XXXoo$$$$Xoo.          ",
"       .##XXXo$%$..Xo.          ",
"       .#@#.Xo$%.&*.##.         ",
"       .#..=Xo$%.&*.@#.         ",
"        ..-*XX+;.&*..#.         ",
"         .X***...-X. .          ",
"          ....   ..             ",
"                                ",
"                                ",
"                                ",
"                                ",
"                                ",
"                                "
};
